<?xml version="1.0" encoding="UTF-8"?>
<svg xmlns="http://www.w3.org/2000/svg" style="stroke-dasharray:none; shape-rendering:auto; font-family:'Arial'; text-rendering:auto; fill-opacity:1; color-interpolation:auto; color-rendering:auto; font-size:12; fill:black; stroke:black; image-rendering:auto; stroke-miterlimit:10; stroke-linecap:square; stroke-linejoin:miter; font-style:normal; stroke-width:1; stroke-dashoffset:0; font-weight:normal; stroke-opacity:1;" contentScriptType="text/ecmascript" preserveAspectRatio="xMidYMid meet" zoomAndPan="magnify" version="1.0" contentStyleType="text/css" xml:xlink="http://www.w3.org/1999/xlink" width="1601" height="611"><rect x="0" y="40" width="1601" height="571" ry="0" rx="0" style="stroke:#000000; fill:#FFFFFF" /><rect x="30" y="420" width="1571" height="191" ry="0" rx="0" style="stroke:#000000; fill:#78A2CF" /><g componentSequence="4"><text x="-515" y="37" transform="rotate(270)" text-anchor="middle" style="font-weight:bold;font-size:10px;stroke:none; fill:#434343"><tspan dy="14" x="-515">NTIC</tspan></text></g><rect x="30" y="230" width="1571" height="190" ry="0" rx="0" style="stroke:#000000; fill:#BAC7F8" /><g componentSequence="3"><text x="-325" y="37" transform="rotate(270)" text-anchor="middle" style="font-weight:bold;font-size:10px;stroke:none; fill:#434343"><tspan dy="14" x="-325">Diretoria Responsável</tspan></text></g><rect x="30" y="40" width="1571" height="190" ry="0" rx="0" style="stroke:#000000; fill:#9DCEFF" /><g componentSequence="2"><text x="-135" y="37" transform="rotate(270)" text-anchor="middle" style="font-weight:bold;font-size:10px;stroke:none; fill:#434343"><tspan dy="14" x="-135">Demandante</tspan></text></g><g componentSequence="1"><text x="-325" y="7" transform="rotate(270)" text-anchor="middle" style="font-weight:bold;font-size:10px;stroke:none; fill:#434343"><tspan dy="14" x="-325">Solicitação de Processo</tspan></text></g><g sequence="5"><ellipse cx="117" cy="136" rx="17" ry="17" stroke-width="1" style="fill:url(#linearGradient66FF6696FF96B6FFB6_1084477548);" stroke="336633" /></g><g sequence="6"><rect x="190" y="102" width="106" height="70" ry="5" rx="5" style="fill:url(#linearGradientF8FBFEEDF5FCDEEDFAD4E7F8E2E5E9_1315186184);" stroke="191970" /></g><g componentSequence="6"><text x="243" y="117" text-anchor="middle" style="font-weight:bold;font-size:10px;stroke:none; fill:#333399"><tspan dy="14" x="243">Aprovação do</tspan><tspan dy="14" x="243">Superior</tspan></text></g><g sequence="7"><rect x="500" y="109" width="106" height="56" ry="5" rx="5" style="fill:url(#linearGradientF8FBFEEDF5FCDEEDFAD4E7F8E2E5E9_1247525660);" stroke="191970" /></g><g componentSequence="7"><text x="553" y="126" text-anchor="middle" style="font-weight:bold;font-size:10px;stroke:none; fill:#333399"><tspan dy="14" x="553">Ajustes</tspan></text></g><g sequence="8"><ellipse cx="787" cy="136" rx="17" ry="17" stroke-width="3" style="fill:url(#linearGradientFF6666FF9696FFB6B6_257502259);" stroke="993333" /></g><g sequence="8"><polygon points=" 778 132 783 127 788 132 793 127 798 132 793 137 798 142 793 147 788 142 783 147 778 142 783 137" style="stroke:none; fill:#993333" /></g><g sequence="9"><polygon points=" 370 116 400 86 430 116 400 146 370 116" style="fill:url(#linearGradientFAFBFCFFFFCC_1361554692);" stroke="000000" /></g><g componentSequence="9"><text x="400" y="156" text-anchor="middle" style="font-weight:bold;font-size:10px;stroke:none; fill:#333399"><tspan dy="14" x="400">Aprovad</tspan><tspan dy="14" x="400">o</tspan></text></g><g sequence="11"><rect x="110" y="282" width="106" height="70" ry="5" rx="5" style="fill:url(#linearGradientF8FBFEEDF5FCDEEDFAD4E7F8E2E5E9_1050445134);" stroke="191970" /></g><g componentSequence="11"><text x="163" y="297" text-anchor="middle" style="font-weight:bold;font-size:10px;stroke:none; fill:#333399"><tspan dy="14" x="163">Deliberar</tspan><tspan dy="14" x="163">Solicitação</tspan></text></g><g sequence="12"><ellipse cx="287" cy="317" rx="17" ry="17" stroke-width="3" style="fill:url(#linearGradientFF6666FF9696FFB6B6_688413402);" stroke="993333" /></g><g sequence="12"><polygon points=" 278 313 283 308 288 313 293 308 298 313 293 318 298 323 293 328 288 323 283 328 278 323 283 318" style="stroke:none; fill:#993333" /></g><g sequence="13"><rect x="110" y="480" width="106" height="70" ry="5" rx="5" style="fill:url(#linearGradientF8FBFEEDF5FCDEEDFAD4E7F8E2E5E9_1870058364);" stroke="191970" /></g><g componentSequence="13"><text x="163" y="495" text-anchor="middle" style="font-weight:bold;font-size:10px;stroke:none; fill:#333399"><tspan dy="14" x="163">Analisar Dados</tspan><tspan dy="14" x="163">da Solicitação</tspan></text></g><g sequence="14"><polygon points=" 250 497 280 467 310 497 280 527 250 497" style="fill:url(#linearGradientFAFBFCFFFFCC_64298011);" stroke="000000" /></g><g componentSequence="14"><text x="280" y="537" text-anchor="middle" style="font-weight:bold;font-size:10px;stroke:none; fill:#333399"><tspan dy="14" x="280">Agenda</tspan><tspan dy="14" x="280">mento</tspan></text></g><g sequence="15"><rect x="360" y="433" width="106" height="84" ry="5" rx="5" style="fill:url(#linearGradientF8FBFEEDF5FCDEEDFAD4E7F8E2E5E9_1505316826);" stroke="191970" /></g><g componentSequence="15"><text x="413" y="448" text-anchor="middle" style="font-weight:bold;font-size:10px;stroke:none; fill:#333399"><tspan dy="14" x="413">Agendamento</tspan><tspan dy="14" x="413">do Mapeamento</tspan></text></g><g sequence="16"><rect x="360" y="530" width="106" height="70" ry="5" rx="5" style="fill:url(#linearGradientF8FBFEEDF5FCDEEDFAD4E7F8E2E5E9_839651517);" stroke="191970" /></g><g componentSequence="16"><text x="413" y="545" text-anchor="middle" style="font-weight:bold;font-size:10px;stroke:none; fill:#333399"><tspan dy="14" x="413">Agendamento</tspan><tspan dy="14" x="413">da Revisão</tspan></text></g><g sequence="17"><rect x="510" y="440" width="106" height="70" ry="5" rx="5" style="fill:url(#linearGradientF8FBFEEDF5FCDEEDFAD4E7F8E2E5E9_1798883507);" stroke="191970" /></g><g componentSequence="17"><text x="563" y="455" text-anchor="middle" style="font-weight:bold;font-size:10px;stroke:none; fill:#333399"><tspan dy="14" x="563">Mapeamento do</tspan><tspan dy="14" x="563">Processo</tspan></text></g><g sequence="18"><rect x="510" y="530" width="106" height="70" ry="5" rx="5" style="fill:url(#linearGradientF8FBFEEDF5FCDEEDFAD4E7F8E2E5E9_1076241419);" stroke="191970" /></g><g componentSequence="18"><text x="563" y="545" text-anchor="middle" style="font-weight:bold;font-size:10px;stroke:none; fill:#333399"><tspan dy="14" x="563">Revisão do</tspan><tspan dy="14" x="563">Processo</tspan></text></g><g sequence="19"><rect x="650" y="470" width="106" height="84" ry="5" rx="5" style="fill:url(#linearGradientF8FBFEEDF5FCDEEDFAD4E7F8E2E5E9_1400005706);" stroke="191970" /></g><g componentSequence="19"><text x="703" y="485" text-anchor="middle" style="font-weight:bold;font-size:10px;stroke:none; fill:#333399"><tspan dy="14" x="703">Validação e/ou</tspan><tspan dy="14" x="703">Ajustes do</tspan><tspan dy="14" x="703">Mapeamento</tspan></text></g><g sequence="20"><rect x="930" y="477" width="106" height="70" ry="5" rx="5" style="fill:url(#linearGradientF8FBFEEDF5FCDEEDFAD4E7F8E2E5E9_27860833);" stroke="191970" /></g><g componentSequence="20"><text x="983" y="492" text-anchor="middle" style="font-weight:bold;font-size:10px;stroke:none; fill:#333399"><tspan dy="14" x="983">Finalização do</tspan><tspan dy="14" x="983">Fluxo</tspan></text></g><g sequence="21"><rect x="790" y="480" width="106" height="70" ry="5" rx="5" style="fill:url(#linearGradientF8FBFEEDF5FCDEEDFAD4E7F8E2E5E9_754528951);" stroke="191970" /></g><g componentSequence="21"><text x="843" y="495" text-anchor="middle" style="font-weight:bold;font-size:10px;stroke:none; fill:#333399"><tspan dy="14" x="843">Elaboração do</tspan><tspan dy="14" x="843">Fluxo</tspan></text></g><g sequence="22"><rect x="1080" y="477" width="106" height="70" ry="5" rx="5" style="fill:url(#linearGradientF8FBFEEDF5FCDEEDFAD4E7F8E2E5E9_1561218399);" stroke="191970" /></g><g componentSequence="22"><text x="1133" y="492" text-anchor="middle" style="font-weight:bold;font-size:10px;stroke:none; fill:#333399"><tspan dy="14" x="1133">Assinatura do</tspan><tspan dy="14" x="1133">Processo</tspan></text></g><g sequence="23"><polygon points=" 1240 498 1270 468 1300 498 1270 528 1240 498" style="fill:url(#linearGradientFAFBFCFFFFCC_496906880);" stroke="000000" /></g><g componentSequence="23"><text x="1270" y="531" text-anchor="middle" style="font-weight:bold;font-size:10px;stroke:none; fill:#333399"><tspan dy="14" x="1270">Enviar</tspan></text></g><g sequence="24"><rect x="1350" y="476" width="106" height="70" ry="5" rx="5" style="fill:url(#linearGradientF8FBFEEDF5FCDEEDFAD4E7F8E2E5E9_1418032197);" stroke="191970" /></g><g componentSequence="24"><text x="1403" y="491" text-anchor="middle" style="font-weight:bold;font-size:10px;stroke:none; fill:#333399"><tspan dy="14" x="1403">Desenvolviment</tspan><tspan dy="14" x="1403">o do Processo</tspan></text></g><g sequence="25"><ellipse cx="1547" cy="511" rx="17" ry="17" stroke-width="3" style="fill:url(#linearGradientFF6666FF9696FFB6B6_822909160);" stroke="993333" /></g><g componentSequence="26"><text x="172" y="136" style="font-size:10px;font-weight:none;stroke:none; fill:#333399" text-anchor="left" /></g><g componentSequence="28"><text x="698" y="136" style="font-size:10px;font-weight:none;stroke:none; fill:#333399" text-anchor="left" /></g><g componentSequence="30"><text x="343" y="137" style="font-size:10px;font-weight:none;stroke:none; fill:#333399" text-anchor="left" /></g><g componentSequence="32"><text x="534" y="64" style="font-size:10px;font-weight:none;stroke:none; fill:#333399" text-anchor="left" /></g><g componentSequence="33"><text x="172" y="136" style="font-size:10px;font-weight:none;stroke:none; fill:#333399" text-anchor="left" /></g><g componentSequence="34"><text x="347" y="389" style="font-size:10px;font-weight:none;stroke:none; fill:#333399" text-anchor="left" /></g><g componentSequence="37"><text x="243" y="517" style="font-size:10px;font-weight:none;stroke:none; fill:#333399" text-anchor="left" /></g><g componentSequence="38"><text x="345" y="500" style="font-size:10px;font-weight:none;stroke:none; fill:#333399" text-anchor="left" /></g><g componentSequence="39"><text x="345" y="537" style="font-size:10px;font-weight:none;stroke:none; fill:#333399" text-anchor="left" /></g><g componentSequence="40"><text x="498" y="475" style="font-size:10px;font-weight:none;stroke:none; fill:#333399" text-anchor="left" /></g><g componentSequence="41"><text x="498" y="565" style="font-size:10px;font-weight:none;stroke:none; fill:#333399" text-anchor="left" /></g><g componentSequence="44"><text x="643" y="494" style="font-size:10px;font-weight:none;stroke:none; fill:#333399" text-anchor="left" /></g><g componentSequence="45"><text x="643" y="539" style="font-size:10px;font-weight:none;stroke:none; fill:#333399" text-anchor="left" /></g><g componentSequence="46"><text x="783" y="514" style="font-size:10px;font-weight:none;stroke:none; fill:#333399" text-anchor="left" /></g><g componentSequence="47"><text x="923" y="514" style="font-size:10px;font-weight:none;stroke:none; fill:#333399" text-anchor="left" /></g><g componentSequence="48"><text x="1068" y="512" style="font-size:10px;font-weight:none;stroke:none; fill:#333399" text-anchor="left" /></g><g componentSequence="49"><text x="1223" y="512" style="font-size:10px;font-weight:none;stroke:none; fill:#333399" text-anchor="left" /></g><g componentSequence="50"><text x="1335" y="511" style="font-size:10px;font-weight:none;stroke:none; fill:#333399" text-anchor="left" /></g><g componentSequence="51"><text x="1432" y="438" style="font-size:10px;font-weight:none;stroke:none; fill:#333399" text-anchor="left" /></g><g componentSequence="52"><text x="1503" y="511" style="font-size:10px;font-weight:none;stroke:none; fill:#333399" text-anchor="left" /></g><g componentSequence="53"><text x="173" y="416" style="font-size:10px;font-weight:none;stroke:none; fill:#333399" text-anchor="left" /></g><g componentSequence="54"><text x="436" y="390" style="font-size:10px;font-weight:none;stroke:none; fill:#333399" text-anchor="left" /></g><g componentSequence="55"><text x="435" y="389" style="font-size:10px;font-weight:none;stroke:none; fill:#333399" text-anchor="left" /></g><g componentSequence="56"><text x="173" y="416" style="font-size:10px;font-weight:none;stroke:none; fill:#333399" text-anchor="left" /></g><g componentSequence="57"><text x="253" y="317" style="font-size:10px;font-weight:none;stroke:none; fill:#333399" text-anchor="left" /></g><g componentSequence="58"><text x="498" y="475" style="font-size:10px;font-weight:none;stroke:none; fill:#333399" text-anchor="left" /></g><g componentSequence="59"><text x="498" y="565" style="font-size:10px;font-weight:none;stroke:none; fill:#333399" text-anchor="left" /></g><path style="fill:none; stroke:#000000;stroke-width:1" d="M134.0 136.0 L189.0 136.0" /><polygon style="fill:#000000; stroke:#000000;" points=" 179 131 189 136 179 141 181 136" /><path style="fill:none; stroke:#000000;stroke-width:1" d="M189.0 136.0 L134.0 136.0" /><polygon style="fill:#000000; stroke:#000000;" points=" 144 141 134 136 144 131 142 136" /><path style="fill:none; stroke:#000000;stroke-width:1" d="M296.0 137.0 L369.0 137.0" /><polygon style="fill:#000000; stroke:#000000;" points=" 359 132 369 137 359 142 361 137" /><path style="fill:none; stroke:#000000;stroke-width:1" d="M243.0 101.0 L243.0 64.0 L787.0 64.0 L787.0 118.0" /><polygon style="fill:#000000; stroke:#000000;" points=" 792 108 787 118 782 108 787 110" /><path style="fill:none; stroke:#000000;stroke-width:1" d="M606.0 136.0 L770.0 136.0" /><polygon style="fill:#000000; stroke:#000000;" points=" 760 131 770 136 760 141 762 136" /><path style="fill:none; stroke:#000000;stroke-width:1" d="M552.0 165.0 L552.0 389.0 L163.0 389.0 L163.0 479.0" /><polygon style="fill:#000000; stroke:#000000;" points=" 168 469 163 479 158 469 163 471" /><path style="fill:none; stroke:#000000;stroke-width:1" d="M163.0 479.0 L163.0 390.0 L552.0 390.0 L552.0 165.0" /><polygon style="fill:#000000; stroke:#000000;" points=" 547 175 552 165 557 175 552 173" /><path style="fill:none; stroke:#000000;stroke-width:1" d="M400.0 188.0 L400.0 389.0 L163.0 389.0 L163.0 479.0" /><polygon style="fill:#000000; stroke:#000000;" points=" 168 469 163 479 158 469 163 471" /><path style="fill:none; stroke:#000000;stroke-width:1" d="M163.0 352.0 L163.0 479.0" /><polygon style="fill:#000000; stroke:#000000;" points=" 168 469 163 479 158 469 163 471" /><path style="fill:none; stroke:#000000;stroke-width:1" d="M216.0 317.0 L269.0 317.0" /><polygon style="fill:#000000; stroke:#000000;" points=" 259 312 269 317 259 322 261 317" /><path style="fill:none; stroke:#000000;stroke-width:1" d="M163.0 479.0 L163.0 352.0" /><polygon style="fill:#000000; stroke:#000000;" points=" 158 362 163 352 168 362 163 360" /><path style="fill:none; stroke:#000000;stroke-width:1" d="M216.0 516.0 L249.0 517.0" /><polygon style="fill:#000000; stroke:#000000;" points=" 239 512 249 517 239 522 241 517" /><path style="fill:none; stroke:#000000;stroke-width:1" d="M310.0 508.0 L359.0 492.0" /><polygon style="fill:#000000; stroke:#000000;" points=" 348 490 359 492 351 500 351 494" /><path style="fill:none; stroke:#000000;stroke-width:1" d="M310.0 528.0 L359.0 546.0" /><polygon style="fill:#000000; stroke:#000000;" points=" 351 538 359 546 348 547 351 543" /><path style="fill:none; stroke:#000000;stroke-width:1" d="M466.0 475.0 L509.0 475.0" /><polygon style="fill:#000000; stroke:#000000;" points=" 499 470 509 475 499 480 501 475" /><path style="fill:none; stroke:#000000;stroke-width:1" d="M509.0 475.0 L466.0 475.0" /><polygon style="fill:#000000; stroke:#000000;" points=" 476 480 466 475 476 470 474 475" /><path style="fill:none; stroke:#000000;stroke-width:1" d="M466.0 565.0 L509.0 565.0" /><polygon style="fill:#000000; stroke:#000000;" points=" 499 560 509 565 499 570 501 565" /><path style="fill:none; stroke:#000000;stroke-width:1" d="M509.0 565.0 L466.0 565.0" /><polygon style="fill:#000000; stroke:#000000;" points=" 476 570 466 565 476 560 474 565" /><path style="fill:none; stroke:#000000;stroke-width:1" d="M616.0 489.0 L649.0 498.0" /><polygon style="fill:#000000; stroke:#000000;" points=" 641 491 649 498 638 500 641 496" /><path style="fill:none; stroke:#000000;stroke-width:1" d="M616.0 545.0 L649.0 532.0" /><polygon style="fill:#000000; stroke:#000000;" points=" 638 531 649 532 642 540 642 535" /><path style="fill:none; stroke:#000000;stroke-width:1" d="M756.0 513.0 L789.0 514.0" /><polygon style="fill:#000000; stroke:#000000;" points=" 779 509 789 514 779 519 781 514" /><path style="fill:none; stroke:#000000;stroke-width:1" d="M1036.0 512.0 L1079.0 512.0" /><polygon style="fill:#000000; stroke:#000000;" points=" 1069 507 1079 512 1069 517 1071 512" /><path style="fill:none; stroke:#000000;stroke-width:1" d="M896.0 514.0 L929.0 513.0" /><polygon style="fill:#000000; stroke:#000000;" points=" 919 508 929 513 919 518 921 513" /><path style="fill:none; stroke:#000000;stroke-width:1" d="M1186.0 512.0 L1239.0 512.0" /><polygon style="fill:#000000; stroke:#000000;" points=" 1229 507 1239 512 1229 517 1231 512" /><path style="fill:none; stroke:#000000;stroke-width:1" d="M1300.0 511.0 L1349.0 511.0" /><polygon style="fill:#000000; stroke:#000000;" points=" 1339 506 1349 511 1339 516 1341 511" /><path style="fill:none; stroke:#000000;stroke-width:1" d="M1270.0 467.0 L1270.0 438.0 L1547.0 438.0 L1547.0 493.0" /><polygon style="fill:#000000; stroke:#000000;" points=" 1552 483 1547 493 1542 483 1547 485" /><path style="fill:none; stroke:#000000;stroke-width:1" d="M1456.0 511.0 L1529.0 511.0" /><polygon style="fill:#000000; stroke:#000000;" points=" 1519 506 1529 511 1519 516 1521 511" /><defs><linearGradient xmlns:xlink="http://www.w3.org/1999/xlink" xlink:href="#linearGradient66FF6696FF96B6FFB6" id="linearGradient66FF6696FF96B6FFB6_1084477548" x1="0" y1="119.0" x2="0" y2="154.0" gradientUnits="userSpaceOnUse" xlink:type="simple" xlink:actuate="onLoad" xlink:show="other" /><linearGradient id="linearGradient66FF6696FF96B6FFB6"><stop style="stop-color:#66FF66;stop-opacity:1;" offset="0.0" id="stop66FF66" /><stop style="stop-color:#96FF96;stop-opacity:1;" offset="0.5" id="stop96FF96" /><stop style="stop-color:#B6FFB6;stop-opacity:1;" offset="1.0" id="stopB6FFB6" /></linearGradient><linearGradient xmlns:xlink="http://www.w3.org/1999/xlink" xlink:href="#linearGradientF8FBFEEDF5FCDEEDFAD4E7F8E2E5E9" id="linearGradientF8FBFEEDF5FCDEEDFAD4E7F8E2E5E9_1315186184" x1="0" y1="102.0" x2="0" y2="208.0" gradientUnits="userSpaceOnUse" xlink:type="simple" xlink:actuate="onLoad" xlink:show="other" /><linearGradient id="linearGradientF8FBFEEDF5FCDEEDFAD4E7F8E2E5E9"><stop style="stop-color:#F8FBFE;stop-opacity:1;" offset="0.0" id="stopF8FBFE" /><stop style="stop-color:#EDF5FC;stop-opacity:1;" offset="0.25" id="stopEDF5FC" /><stop style="stop-color:#DEEDFA;stop-opacity:1;" offset="0.5" id="stopDEEDFA" /><stop style="stop-color:#D4E7F8;stop-opacity:1;" offset="0.75" id="stopD4E7F8" /><stop style="stop-color:#E2E5E9;stop-opacity:1;" offset="1.0" id="stopE2E5E9" /></linearGradient><linearGradient xmlns:xlink="http://www.w3.org/1999/xlink" xlink:href="#linearGradientF8FBFEEDF5FCDEEDFAD4E7F8E2E5E9" id="linearGradientF8FBFEEDF5FCDEEDFAD4E7F8E2E5E9_1247525660" x1="0" y1="109.0" x2="0" y2="215.0" gradientUnits="userSpaceOnUse" xlink:type="simple" xlink:actuate="onLoad" xlink:show="other" /><linearGradient xmlns:xlink="http://www.w3.org/1999/xlink" xlink:href="#linearGradientFF6666FF9696FFB6B6" id="linearGradientFF6666FF9696FFB6B6_257502259" x1="0" y1="119.0" x2="0" y2="154.0" gradientUnits="userSpaceOnUse" xlink:type="simple" xlink:actuate="onLoad" xlink:show="other" /><linearGradient id="linearGradientFF6666FF9696FFB6B6"><stop style="stop-color:#FF6666;stop-opacity:1;" offset="0.0" id="stopFF6666" /><stop style="stop-color:#FF9696;stop-opacity:1;" offset="0.5" id="stopFF9696" /><stop style="stop-color:#FFB6B6;stop-opacity:1;" offset="1.0" id="stopFFB6B6" /></linearGradient><linearGradient xmlns:xlink="http://www.w3.org/1999/xlink" xlink:href="#linearGradientFAFBFCFFFFCC" id="linearGradientFAFBFCFFFFCC_1361554692" x1="0" y1="86.0" x2="0" y2="146.0" gradientUnits="userSpaceOnUse" xlink:type="simple" xlink:actuate="onLoad" xlink:show="other" /><linearGradient id="linearGradientFAFBFCFFFFCC"><stop style="stop-color:#FAFBFC;stop-opacity:1;" offset="0.0" id="stopFAFBFC" /><stop style="stop-color:#FFFFCC;stop-opacity:1;" offset="1.0" id="stopFFFFCC" /></linearGradient><linearGradient xmlns:xlink="http://www.w3.org/1999/xlink" xlink:href="#linearGradientF8FBFEEDF5FCDEEDFAD4E7F8E2E5E9" id="linearGradientF8FBFEEDF5FCDEEDFAD4E7F8E2E5E9_1050445134" x1="0" y1="282.0" x2="0" y2="388.0" gradientUnits="userSpaceOnUse" xlink:type="simple" xlink:actuate="onLoad" xlink:show="other" /><linearGradient xmlns:xlink="http://www.w3.org/1999/xlink" xlink:href="#linearGradientFF6666FF9696FFB6B6" id="linearGradientFF6666FF9696FFB6B6_688413402" x1="0" y1="300.0" x2="0" y2="335.0" gradientUnits="userSpaceOnUse" xlink:type="simple" xlink:actuate="onLoad" xlink:show="other" /><linearGradient xmlns:xlink="http://www.w3.org/1999/xlink" xlink:href="#linearGradientF8FBFEEDF5FCDEEDFAD4E7F8E2E5E9" id="linearGradientF8FBFEEDF5FCDEEDFAD4E7F8E2E5E9_1870058364" x1="0" y1="480.0" x2="0" y2="586.0" gradientUnits="userSpaceOnUse" xlink:type="simple" xlink:actuate="onLoad" xlink:show="other" /><linearGradient xmlns:xlink="http://www.w3.org/1999/xlink" xlink:href="#linearGradientFAFBFCFFFFCC" id="linearGradientFAFBFCFFFFCC_64298011" x1="0" y1="467.0" x2="0" y2="527.0" gradientUnits="userSpaceOnUse" xlink:type="simple" xlink:actuate="onLoad" xlink:show="other" /><linearGradient xmlns:xlink="http://www.w3.org/1999/xlink" xlink:href="#linearGradientF8FBFEEDF5FCDEEDFAD4E7F8E2E5E9" id="linearGradientF8FBFEEDF5FCDEEDFAD4E7F8E2E5E9_1505316826" x1="0" y1="433.0" x2="0" y2="539.0" gradientUnits="userSpaceOnUse" xlink:type="simple" xlink:actuate="onLoad" xlink:show="other" /><linearGradient xmlns:xlink="http://www.w3.org/1999/xlink" xlink:href="#linearGradientF8FBFEEDF5FCDEEDFAD4E7F8E2E5E9" id="linearGradientF8FBFEEDF5FCDEEDFAD4E7F8E2E5E9_839651517" x1="0" y1="530.0" x2="0" y2="636.0" gradientUnits="userSpaceOnUse" xlink:type="simple" xlink:actuate="onLoad" xlink:show="other" /><linearGradient xmlns:xlink="http://www.w3.org/1999/xlink" xlink:href="#linearGradientF8FBFEEDF5FCDEEDFAD4E7F8E2E5E9" id="linearGradientF8FBFEEDF5FCDEEDFAD4E7F8E2E5E9_1798883507" x1="0" y1="440.0" x2="0" y2="546.0" gradientUnits="userSpaceOnUse" xlink:type="simple" xlink:actuate="onLoad" xlink:show="other" /><linearGradient xmlns:xlink="http://www.w3.org/1999/xlink" xlink:href="#linearGradientF8FBFEEDF5FCDEEDFAD4E7F8E2E5E9" id="linearGradientF8FBFEEDF5FCDEEDFAD4E7F8E2E5E9_1076241419" x1="0" y1="530.0" x2="0" y2="636.0" gradientUnits="userSpaceOnUse" xlink:type="simple" xlink:actuate="onLoad" xlink:show="other" /><linearGradient xmlns:xlink="http://www.w3.org/1999/xlink" xlink:href="#linearGradientF8FBFEEDF5FCDEEDFAD4E7F8E2E5E9" id="linearGradientF8FBFEEDF5FCDEEDFAD4E7F8E2E5E9_1400005706" x1="0" y1="470.0" x2="0" y2="576.0" gradientUnits="userSpaceOnUse" xlink:type="simple" xlink:actuate="onLoad" xlink:show="other" /><linearGradient xmlns:xlink="http://www.w3.org/1999/xlink" xlink:href="#linearGradientF8FBFEEDF5FCDEEDFAD4E7F8E2E5E9" id="linearGradientF8FBFEEDF5FCDEEDFAD4E7F8E2E5E9_27860833" x1="0" y1="477.0" x2="0" y2="583.0" gradientUnits="userSpaceOnUse" xlink:type="simple" xlink:actuate="onLoad" xlink:show="other" /><linearGradient xmlns:xlink="http://www.w3.org/1999/xlink" xlink:href="#linearGradientF8FBFEEDF5FCDEEDFAD4E7F8E2E5E9" id="linearGradientF8FBFEEDF5FCDEEDFAD4E7F8E2E5E9_754528951" x1="0" y1="480.0" x2="0" y2="586.0" gradientUnits="userSpaceOnUse" xlink:type="simple" xlink:actuate="onLoad" xlink:show="other" /><linearGradient xmlns:xlink="http://www.w3.org/1999/xlink" xlink:href="#linearGradientF8FBFEEDF5FCDEEDFAD4E7F8E2E5E9" id="linearGradientF8FBFEEDF5FCDEEDFAD4E7F8E2E5E9_1561218399" x1="0" y1="477.0" x2="0" y2="583.0" gradientUnits="userSpaceOnUse" xlink:type="simple" xlink:actuate="onLoad" xlink:show="other" /><linearGradient xmlns:xlink="http://www.w3.org/1999/xlink" xlink:href="#linearGradientFAFBFCFFFFCC" id="linearGradientFAFBFCFFFFCC_496906880" x1="0" y1="468.0" x2="0" y2="528.0" gradientUnits="userSpaceOnUse" xlink:type="simple" xlink:actuate="onLoad" xlink:show="other" /><linearGradient xmlns:xlink="http://www.w3.org/1999/xlink" xlink:href="#linearGradientF8FBFEEDF5FCDEEDFAD4E7F8E2E5E9" id="linearGradientF8FBFEEDF5FCDEEDFAD4E7F8E2E5E9_1418032197" x1="0" y1="476.0" x2="0" y2="582.0" gradientUnits="userSpaceOnUse" xlink:type="simple" xlink:actuate="onLoad" xlink:show="other" /><linearGradient xmlns:xlink="http://www.w3.org/1999/xlink" xlink:href="#linearGradientFF6666FF9696FFB6B6" id="linearGradientFF6666FF9696FFB6B6_822909160" x1="0" y1="494.0" x2="0" y2="529.0" gradientUnits="userSpaceOnUse" xlink:type="simple" xlink:actuate="onLoad" xlink:show="other" /></defs></svg>
